# xmcd
#
# Track frame offsets:
# 150
# 11821
# 25964
# 42011
# 60051
# 80104
# 95017
# 109224
# 119780
# 131506
# 143489
# 161086
#
# Disc length: 2336 seconds
#
# Revision: 0
# Processed by: cddbd v1.5.2PL0 Copyright (c) Steve Scherf et al.
# Submitted via: Axialis_AX_CDPlayer 2.6
#
DISCID=9f091e0c
DTITLE=Richard Dobson - On Thistledown Wind
DYEAR=1900
DGENRE=
TTITLE0=Come On Baby, Let's Dance
TTITLE1=The Ballad Of Harppon Barry
TTITLE2=She Was Just A Little Crazy
TTITLE3=On Thistledown Wind
TTITLE4=The Infidel
TTITLE5=Red Headed Woman
TTITLE6=Queen Of My Heart
TTITLE7=Scissortail Bird
TTITLE8=Down Along The Reeperbahn
TTITLE9=Month Of Mondays (A Song For The Muse)
TTITLE10=Slave To The Restless Wind
TTITLE11=New Morning Song (Om Mani Padme Hung)
EXTD=
EXTT0=
EXTT1=
EXTT2=
EXTT3=
EXTT4=
EXTT5=
EXTT6=
EXTT7=
EXTT8=
EXTT9=
EXTT10=
EXTT11=
PLAYORDER=
